# This file uses centimeters as units for non-parametric coordinates.

g default
v -0.500000 -0.239490 0.250025
v -0.250025 -0.239490 0.500000
v 0.500000 -0.239490 0.250025
v 0.250025 -0.239490 0.500000
v -0.500000 -0.239490 -0.250025
v -0.250025 -0.239490 -0.500000
v 0.500000 -0.239490 -0.250025
v 0.250025 -0.239490 -0.500000
v -0.500000 0.127815 0.250025
v -0.371993 0.255823 0.197003
v -0.500000 0.127815 -0.250025
v -0.371993 0.255823 -0.197003
v -0.250025 0.127815 0.500000
v -0.197003 0.255823 0.371993
v 0.250025 0.127815 0.500000
v 0.197003 0.255823 0.371993
v 0.500000 0.127815 0.250025
v 0.371993 0.255823 0.197003
v 0.500000 0.127815 -0.250025
v 0.371993 0.255823 -0.197003
v -0.250025 0.127815 -0.500000
v -0.197003 0.255823 -0.371993
v 0.250025 0.127815 -0.500000
v 0.197003 0.255823 -0.371993
v -0.170819 0.255823 0.322552
v 0.170819 0.255823 0.322552
v 0.322552 0.255823 0.170819
v 0.322552 0.255823 -0.170819
v 0.170819 0.255823 -0.322552
v -0.170819 0.255823 -0.322552
v -0.322552 0.255823 -0.170819
v -0.322552 0.255823 0.170819
v -0.170819 0.227360 0.322552
v 0.170819 0.227360 0.322552
v 0.322552 0.227360 0.170819
v 0.322552 0.227360 -0.170819
v 0.170819 0.227360 -0.322552
v -0.170819 0.227360 -0.322552
v -0.322552 0.227360 -0.170819
v -0.322552 0.227360 0.170819
v -0.145540 0.227360 0.274818
v 0.145540 0.227360 0.274818
v 0.274818 0.227360 0.145540
v 0.274818 0.227360 -0.145540
v 0.145540 0.227360 -0.274818
v -0.145540 0.227360 -0.274818
v -0.274818 0.227360 -0.145540
v -0.274818 0.227360 0.145540
v -0.229131 0.300046 0.164211
v 0.099292 0.300046 0.164211
v 0.099292 0.300046 -0.164211
v -0.229131 0.300046 -0.164211
v 0.250025 -0.154313 0.500000
v -0.250025 -0.154313 0.500000
v -0.250025 -0.191136 0.500000
v 0.250025 -0.191136 0.500000
v -0.250025 -0.191136 -0.500000
v -0.250025 -0.154313 -0.500000
v 0.250025 -0.154313 -0.500000
v 0.250025 -0.191136 -0.500000
v 0.500000 -0.154313 -0.250025
v 0.500000 -0.154313 0.250025
v 0.500000 -0.191136 0.250025
v 0.500000 -0.191136 -0.250025
v -0.500000 -0.154313 0.250025
v -0.500000 -0.154313 -0.250025
v -0.500000 -0.191136 -0.250025
v -0.500000 -0.191136 0.250025
v 0.230528 -0.155748 0.461010
v -0.230528 -0.155748 0.461010
v -0.230528 -0.189700 0.461010
v 0.230528 -0.189700 0.461010
v -0.230528 -0.189700 -0.461010
v -0.230528 -0.155748 -0.461010
v 0.230528 -0.155748 -0.461010
v 0.230528 -0.189700 -0.461010
v 0.461010 -0.155748 -0.230528
v 0.461010 -0.155748 0.230528
v 0.461010 -0.189700 0.230528
v 0.461010 -0.189700 -0.230528
v -0.461010 -0.155748 0.230528
v -0.461010 -0.155748 -0.230528
v -0.461010 -0.189700 -0.230528
v -0.461010 -0.189700 0.230528
vt 0.925612 0.295761
vt 0.977438 0.295761
vt 0.977438 0.321677
vt 0.964483 0.334632
vt 0.938567 0.334632
vt 0.925612 0.321677
vt 0.182987 0.109312
vt 0.434843 0.186768
vt 0.357387 0.438624
vt 0.105531 0.361168
vt 0.615706 0.431923
vt 0.615706 0.275488
vt 0.795061 0.275488
vt 0.885050 0.431783
vt 0.885072 0.275348
vt 0.526384 0.275488
vt 0.616044 0.275488
vt 0.616044 0.431923
vt 0.526384 0.431923
vt 0.795398 0.275488
vt 0.885057 0.275488
vt 0.885057 0.431923
vt 0.616048 0.431923
vt 0.616048 0.275488
vt 0.795402 0.275488
vt 0.795413 0.275340
vt 0.616036 0.431761
vt 0.526377 0.431753
vt 0.526399 0.275318
vt 0.616058 0.275325
vt 0.105531 0.186769
vt 0.030675 0.154200
vt 0.150419 0.034456
vt 0.795060 0.431923
vt 0.776043 0.524618
vt 0.634724 0.524618
vt 0.030675 0.393736
vt 0.182987 0.438624
vt 0.150419 0.513480
vt 0.635061 0.524618
vt 0.795398 0.431923
vt 0.776380 0.524618
vt 0.357387 0.109312
vt 0.389955 0.034456
vt 0.509699 0.154200
vt 0.635066 0.524618
vt 0.795402 0.431923
vt 0.776384 0.524618
vt 0.434843 0.361168
vt 0.509699 0.393736
vt 0.389955 0.513480
vt 0.795391 0.431775
vt 0.776365 0.524468
vt 0.635046 0.524457
vt 0.192308 0.126912
vt 0.348066 0.126911
vt 0.417243 0.196089
vt 0.417243 0.351847
vt 0.348066 0.421024
vt 0.192308 0.421024
vt 0.123131 0.351847
vt 0.123131 0.196089
vt 0.197326 0.136388
vt 0.343048 0.136388
vt 0.407767 0.201107
vt 0.407767 0.346829
vt 0.343047 0.411548
vt 0.197327 0.411548
vt 0.132607 0.346829
vt 0.132607 0.201108
vt 0.208081 0.156695
vt 0.332293 0.156695
vt 0.387460 0.211862
vt 0.387460 0.336074
vt 0.332293 0.391241
vt 0.208081 0.391241
vt 0.152914 0.336074
vt 0.152914 0.211862
vt 0.202240 0.206021
vt 0.338134 0.206021
vt 0.338134 0.341915
vt 0.202240 0.341915
vt 0.795398 0.317672
vt 0.616044 0.317672
vt 0.616044 0.292870
vt 0.795398 0.292870
vt 0.795391 0.317525
vt 0.616036 0.317510
vt 0.616058 0.292708
vt 0.795413 0.292722
vt 0.795402 0.317672
vt 0.616048 0.317673
vt 0.616048 0.292870
vt 0.795402 0.292870
vt 0.795060 0.317672
vt 0.615706 0.317673
vt 0.615706 0.292870
vt 0.795061 0.292870
vt 0.526384 0.292870
vt 0.526384 0.317672
vt 0.885057 0.292870
vt 0.885057 0.317672
vt 0.885050 0.317532
vt 0.885072 0.292730
vt 0.526377 0.317502
vt 0.526399 0.292700
vt 0.795398 0.308115
vt 0.616044 0.308115
vt 0.616044 0.300607
vt 0.795398 0.300607
vt 0.795391 0.307967
vt 0.616036 0.307952
vt 0.616054 0.300952
vt 0.795408 0.300967
vt 0.795402 0.308115
vt 0.616048 0.308115
vt 0.616048 0.300607
vt 0.795402 0.300607
vt 0.795060 0.308115
vt 0.615706 0.308115
vt 0.615706 0.300607
vt 0.795061 0.300607
vt 0.526384 0.300607
vt 0.526384 0.308115
vt 0.885057 0.300607
vt 0.885057 0.308115
vt 0.885050 0.307974
vt 0.885068 0.300975
vt 0.526377 0.307944
vt 0.526395 0.300945
vt 0.938567 0.282806
vt 0.964483 0.282806
vn 0.000000 0.000000 1.000000
vn 0.000000 0.000000 1.000000
vn 0.000000 0.000000 1.000000
vn 0.000000 0.000000 1.000000
vn 0.000000 0.000000 -1.000000
vn 0.000000 0.000000 -1.000000
vn 0.000000 0.000000 -1.000000
vn 0.000000 0.000000 -1.000000
vn 1.000000 0.000000 0.000000
vn 1.000000 0.000000 0.000000
vn 1.000000 0.000000 0.000000
vn 1.000000 0.000000 0.000000
vn -1.000000 0.000000 0.000000
vn -1.000000 0.000000 0.000000
vn -1.000000 0.000000 0.000000
vn -1.000000 0.000000 0.000000
vn 0.000000 -1.000000 0.000000
vn 0.000000 -1.000000 0.000000
vn 0.000000 -1.000000 0.000000
vn 0.000000 -1.000000 0.000000
vn 0.000000 -1.000000 0.000000
vn 0.000000 -1.000000 0.000000
vn 0.000000 -1.000000 0.000000
vn 0.000000 -1.000000 0.000000
vn -0.707107 0.000000 0.707107
vn -0.707107 0.000000 0.707107
vn -0.707107 0.000000 0.707107
vn -0.707107 0.000000 0.707107
vn 0.707107 0.000000 0.707107
vn 0.707107 0.000000 0.707107
vn 0.707107 0.000000 0.707107
vn 0.707107 0.000000 0.707107
vn -0.707107 0.000000 -0.707107
vn -0.707107 0.000000 -0.707107
vn -0.707107 0.000000 -0.707107
vn -0.707107 0.000000 -0.707107
vn 0.707107 0.000000 -0.707107
vn 0.707107 0.000000 -0.707107
vn 0.707107 0.000000 -0.707107
vn 0.707107 0.000000 -0.707107
vn -0.500000 0.707107 0.500000
vn -0.500000 0.707107 0.500000
vn -0.500000 0.707107 0.500000
vn -0.500000 0.707107 0.500000
vn -0.707107 0.707107 0.000000
vn -0.707107 0.707107 0.000000
vn -0.707107 0.707107 0.000000
vn -0.707107 0.707107 0.000000
vn -0.500000 0.707107 -0.500000
vn -0.500000 0.707107 -0.500000
vn -0.500000 0.707107 -0.500000
vn -0.500000 0.707107 -0.500000
vn 0.000000 0.707107 0.707107
vn 0.000000 0.707107 0.707107
vn 0.000000 0.707107 0.707107
vn 0.000000 0.707107 0.707107
vn 0.500000 0.707107 0.500000
vn 0.500000 0.707107 0.500000
vn 0.500000 0.707107 0.500000
vn 0.500000 0.707107 0.500000
vn 0.707107 0.707107 0.000000
vn 0.707107 0.707107 0.000000
vn 0.707107 0.707107 0.000000
vn 0.707107 0.707107 0.000000
vn 0.500000 0.707107 -0.500000
vn 0.500000 0.707107 -0.500000
vn 0.500000 0.707107 -0.500000
vn 0.500000 0.707107 -0.500000
vn 0.000000 0.707107 -0.707107
vn 0.000000 0.707107 -0.707107
vn 0.000000 0.707107 -0.707107
vn 0.000000 0.707107 -0.707107
vn 0.000000 1.000000 0.000001
vn 0.000000 1.000000 -0.000000
vn 0.000000 1.000000 -0.000000
vn 0.000000 1.000000 -0.000001
vn 0.000000 1.000000 0.000000
vn 0.000000 1.000000 0.000000
vn 0.000000 1.000000 0.000000
vn 0.000000 1.000000 0.000000
vn 0.000000 1.000000 0.000000
vn 0.000000 1.000000 0.000000
vn 0.000000 1.000000 0.000000
vn 0.000000 1.000000 0.000000
vn 0.000000 1.000000 -0.000000
vn 0.000000 1.000000 -0.000000
vn 0.000000 1.000000 -0.000000
vn 0.000000 1.000000 0.000000
vn 0.000000 1.000000 -0.000000
vn 0.000000 1.000000 0.000000
vn 0.000000 1.000000 0.000000
vn 0.000000 1.000000 0.000001
vn 0.000000 1.000000 0.000000
vn 0.000000 1.000000 0.000000
vn 0.000000 1.000000 0.000000
vn 0.000000 1.000000 0.000000
vn 0.000000 1.000000 0.000000
vn 0.000000 1.000000 0.000000
vn 0.000000 1.000000 0.000000
vn 0.000000 1.000000 0.000000
vn 0.000000 1.000000 0.000000
vn 0.000000 1.000000 0.000000
vn 0.000000 1.000000 0.000000
vn 0.000000 1.000000 0.000000
vn 0.000000 0.000000 -1.000000
vn 0.000000 0.000000 -1.000000
vn 0.000000 0.000000 -1.000000
vn 0.000000 0.000000 -1.000000
vn -0.707107 0.000000 -0.707107
vn -0.707107 0.000000 -0.707107
vn -0.707107 0.000000 -0.707107
vn -0.707107 0.000000 -0.707107
vn -1.000000 0.000000 0.000000
vn -1.000000 0.000000 0.000000
vn -1.000000 0.000000 0.000000
vn -1.000000 0.000000 0.000000
vn -0.707107 0.000000 0.707107
vn -0.707107 0.000000 0.707107
vn -0.707107 0.000000 0.707107
vn -0.707107 0.000000 0.707107
vn 0.000000 0.000000 1.000000
vn 0.000000 0.000000 1.000000
vn 0.000000 0.000000 1.000000
vn 0.000000 0.000000 1.000000
vn 0.707107 0.000000 0.707107
vn 0.707107 0.000000 0.707107
vn 0.707107 0.000000 0.707107
vn 0.707107 0.000000 0.707107
vn 1.000000 0.000000 0.000000
vn 1.000000 0.000000 0.000000
vn 1.000000 0.000000 0.000000
vn 1.000000 0.000000 0.000000
vn 0.707107 0.000000 -0.707107
vn 0.707107 0.000000 -0.707107
vn 0.707107 0.000000 -0.707107
vn 0.707107 0.000000 -0.707107
vn 0.000000 1.000000 -0.000000
vn 0.000000 1.000000 -0.000000
vn 0.000000 1.000000 -0.000000
vn 0.000000 1.000000 0.000000
vn 0.000000 1.000000 0.000000
vn 0.000000 1.000000 0.000000
vn 0.000000 1.000000 0.000000
vn 0.000000 1.000000 0.000000
vn 0.000000 1.000000 0.000000
vn 0.000000 1.000000 0.000000
vn 0.000000 1.000000 0.000000
vn 0.000000 1.000000 0.000000
vn 0.000000 1.000000 0.000000
vn 0.000000 1.000000 -0.000000
vn 0.000000 1.000000 -0.000000
vn 0.000000 1.000000 -0.000000
vn 0.000000 1.000000 0.000000
vn 0.000000 1.000000 0.000000
vn 0.000000 1.000000 0.000000
vn 0.000000 1.000000 0.000000
vn 0.000000 1.000000 -0.000000
vn 0.000000 1.000000 -0.000000
vn 0.000000 1.000000 -0.000000
vn 0.000000 1.000000 0.000000
vn 0.000000 1.000000 0.000000
vn 0.000000 1.000000 0.000000
vn 0.000000 1.000000 0.000000
vn 0.000000 1.000000 0.000000
vn 0.000000 1.000000 0.000000
vn 0.000000 1.000000 0.000000
vn 0.000000 1.000000 0.000000
vn 0.000000 1.000000 0.000000
vn 0.000000 0.835698 0.549190
vn 0.000000 0.835698 0.549190
vn 0.000000 0.835698 0.549190
vn 0.000000 0.835698 0.549190
vn 0.387585 0.836394 0.387585
vn 0.387585 0.836394 0.387585
vn 0.387585 0.836394 0.387585
vn 0.382600 0.923914 0.000000
vn 0.382600 0.923914 0.000000
vn 0.382600 0.923914 0.000000
vn 0.382600 0.923914 0.000000
vn 0.387586 0.836394 -0.387585
vn 0.387586 0.836394 -0.387585
vn 0.387586 0.836394 -0.387585
vn 0.000000 0.835698 -0.549190
vn 0.000000 0.835698 -0.549190
vn 0.000000 0.835698 -0.549190
vn 0.000000 0.835698 -0.549190
vn -0.683882 0.254188 -0.683882
vn -0.683882 0.254188 -0.683882
vn -0.683882 0.254188 -0.683882
vn -0.846643 0.532162 0.000000
vn -0.846643 0.532161 0.000000
vn -0.846643 0.532161 0.000000
vn -0.846643 0.532161 0.000000
vn -0.683882 0.254188 0.683882
vn -0.683882 0.254188 0.683882
vn -0.683882 0.254188 0.683882
vn 0.000000 0.000000 1.000000
vn 0.000000 0.000000 1.000000
vn 0.000000 0.000000 1.000000
vn 0.000000 0.000000 1.000000
vn 0.000000 0.000000 1.000000
vn 0.000000 0.000000 1.000000
vn 0.000000 0.000000 1.000000
vn 0.000000 0.000000 1.000000
vn 0.000000 0.000000 -1.000000
vn 0.000000 0.000000 -1.000000
vn 0.000000 0.000000 -1.000000
vn 0.000000 0.000000 -1.000000
vn 0.000000 0.000000 -1.000000
vn 0.000000 0.000000 -1.000000
vn 0.000000 0.000000 -1.000000
vn 0.000000 0.000000 -1.000000
vn 1.000000 0.000000 0.000000
vn 1.000000 0.000000 0.000000
vn 1.000000 0.000000 0.000000
vn 1.000000 0.000000 0.000000
vn 1.000000 0.000000 0.000000
vn 1.000000 0.000000 0.000000
vn 1.000000 0.000000 0.000000
vn 1.000000 0.000000 0.000000
vn -1.000000 0.000000 0.000000
vn -1.000000 0.000000 0.000000
vn -1.000000 0.000000 0.000000
vn -1.000000 0.000000 0.000000
vn -1.000000 0.000000 0.000000
vn -1.000000 0.000000 0.000000
vn -1.000000 0.000000 0.000000
vn -1.000000 0.000000 0.000000
vn -0.707107 0.000000 0.707107
vn -0.707107 0.000000 0.707107
vn -0.707107 0.000000 0.707107
vn -0.707107 0.000000 0.707107
vn -0.707107 0.000000 0.707107
vn -0.707107 0.000000 0.707107
vn -0.707107 0.000000 0.707107
vn -0.707107 0.000000 0.707107
vn 0.707107 0.000000 0.707107
vn 0.707107 0.000000 0.707107
vn 0.707107 0.000000 0.707107
vn 0.707107 0.000000 0.707107
vn 0.707107 0.000000 0.707107
vn 0.707107 0.000000 0.707107
vn 0.707107 0.000000 0.707107
vn 0.707107 0.000000 0.707107
vn -0.707107 0.000000 -0.707107
vn -0.707107 0.000000 -0.707107
vn -0.707107 0.000000 -0.707107
vn -0.707107 0.000000 -0.707107
vn -0.707107 0.000000 -0.707107
vn -0.707107 0.000000 -0.707107
vn -0.707107 0.000000 -0.707107
vn -0.707107 0.000000 -0.707107
vn 0.707107 0.000000 -0.707107
vn 0.707107 0.000000 -0.707107
vn 0.707107 0.000000 -0.707107
vn 0.707107 0.000000 -0.707107
vn 0.707107 0.000000 -0.707107
vn 0.707107 0.000000 -0.707107
vn 0.707107 0.000000 -0.707107
vn 0.707107 0.000000 -0.707107
vn 0.000000 -0.999323 0.036799
vn 0.000000 -0.999323 0.036798
vn 0.000000 -0.999323 0.036798
vn 0.000000 -0.999323 0.036798
vn 0.000000 0.999323 0.036799
vn 0.000000 0.999323 0.036799
vn 0.000000 0.999323 0.036799
vn 0.000000 0.999323 0.036798
vn 0.000000 -0.999323 -0.036799
vn 0.000000 -0.999323 -0.036798
vn 0.000000 -0.999323 -0.036798
vn 0.000000 -0.999323 -0.036798
vn 0.000000 0.999323 -0.036799
vn 0.000000 0.999323 -0.036799
vn 0.000000 0.999323 -0.036799
vn 0.000000 0.999323 -0.036798
vn 0.036799 -0.999323 0.000000
vn 0.036799 -0.999323 0.000000
vn 0.036799 -0.999323 0.000000
vn 0.036799 -0.999323 0.000000
vn 0.036799 0.999323 0.000000
vn 0.036799 0.999323 0.000000
vn 0.036799 0.999323 0.000000
vn 0.036799 0.999323 0.000000
vn -0.036799 -0.999323 0.000000
vn -0.036799 -0.999323 0.000000
vn -0.036799 -0.999323 0.000000
vn -0.036799 -0.999323 0.000000
vn -0.036799 0.999323 0.000000
vn -0.036799 0.999323 0.000000
vn -0.036799 0.999323 0.000000
vn -0.036799 0.999323 0.000000
vn -0.024533 0.999398 0.024534
vn -0.024533 0.999398 0.024534
vn -0.024533 0.999398 0.024534
vn -0.024533 0.999398 0.024533
vn -0.024533 -0.999398 0.024534
vn -0.024533 -0.999398 0.024534
vn -0.024533 -0.999398 0.024534
vn -0.024533 -0.999398 0.024533
vn 0.024533 0.999398 0.024534
vn 0.024533 0.999398 0.024533
vn 0.024533 0.999398 0.024533
vn 0.024533 0.999398 0.024533
vn 0.024533 -0.999398 0.024534
vn 0.024533 -0.999398 0.024534
vn 0.024533 -0.999398 0.024534
vn 0.024533 -0.999398 0.024534
vn -0.024533 -0.999398 -0.024534
vn -0.024533 -0.999398 -0.024534
vn -0.024533 -0.999398 -0.024534
vn -0.024533 -0.999398 -0.024534
vn -0.024533 0.999398 -0.024534
vn -0.024533 0.999398 -0.024533
vn -0.024533 0.999398 -0.024533
vn -0.024533 0.999398 -0.024533
vn 0.024533 -0.999398 -0.024534
vn 0.024533 -0.999398 -0.024534
vn 0.024533 -0.999398 -0.024534
vn 0.024533 -0.999398 -0.024533
vn 0.024533 0.999398 -0.024534
vn 0.024533 0.999398 -0.024534
vn 0.024533 0.999398 -0.024534
vn 0.024533 0.999398 -0.024533
vn 0.000000 1.000000 0.000000
vn 0.000000 1.000000 0.000000
vn 0.000000 1.000000 0.000000
vn 0.000000 1.000000 0.000000
s 1
g pCube2
f 69/107/1 70/108/2 72/110/3
f 72/110/3 70/108/2 71/109/4
s 2
f 73/114/5 74/111/6 76/113/7
f 76/113/7 74/111/6 75/112/8
s 3
f 77/115/9 78/116/10 80/118/11
f 80/118/11 78/116/10 79/117/12
s 4
f 81/119/13 82/120/14 84/122/15
f 84/122/15 82/120/14 83/121/16
s 5
f 5/1/17 6/131/18 1/6/19
f 6/131/18 8/132/20 1/6/19
f 8/132/20 7/2/21 1/6/19
f 7/2/21 3/3/22 1/6/19
f 3/3/22 4/4/23 1/6/19
f 4/4/23 2/5/24 1/6/19
s 6
f 84/123/25 71/109/26 81/124/27
f 81/124/27 71/109/26 70/108/28
s 7
f 72/110/29 79/125/30 69/107/31
f 69/107/31 79/125/30 78/126/32
s 8
f 82/127/33 74/111/34 83/128/35
f 83/128/35 74/111/34 73/114/36
s 9
f 75/112/37 77/129/38 76/113/39
f 76/113/39 77/129/38 80/130/40
s 10
f 10/31/41 9/32/42 14/7/43
f 14/7/43 9/32/42 13/33/44
s 11
f 9/34/45 10/35/46 11/11/47
f 11/11/47 10/35/46 12/36/48
s 12
f 11/37/49 12/10/50 21/39/51
f 21/39/51 12/10/50 22/38/52
s 13
f 14/40/53 13/18/54 16/42/55
f 16/42/55 13/18/54 15/41/56
s 14
f 16/43/57 15/44/58 18/8/59
f 18/8/59 15/44/58 17/45/60
s 15
f 18/46/61 17/23/62 20/48/63
f 20/48/63 17/23/62 19/47/64
s 16
f 20/49/65 19/50/66 24/9/67
f 24/9/67 19/50/66 23/51/68
s 17
f 21/52/69 22/53/70 23/27/71
f 23/27/71 22/53/70 24/54/72
s 18
f 14/7/73 16/43/74 25/55/75
f 25/55/75 16/43/74 26/56/76
s 19
f 16/43/77 18/8/78 26/56/79
f 26/56/79 18/8/78 27/57/80
s 20
f 18/8/81 20/49/82 27/57/83
f 27/57/83 20/49/82 28/58/84
s 21
f 20/49/85 24/9/86 28/58/87
f 28/58/87 24/9/86 29/59/88
s 22
f 24/9/89 22/38/90 29/59/91
f 29/59/91 22/38/90 30/60/92
s 23
f 22/38/93 12/10/94 30/60/95
f 30/60/95 12/10/94 31/61/96
s 24
f 12/10/97 10/31/98 31/61/99
f 31/61/99 10/31/98 32/62/100
s 25
f 10/31/101 14/7/102 32/62/103
f 32/62/103 14/7/102 25/55/104
s 26
f 25/55/105 26/56/106 33/63/107
f 33/63/107 26/56/106 34/64/108
s 27
f 26/56/109 27/57/110 34/64/111
f 34/64/111 27/57/110 35/65/112
s 28
f 27/57/113 28/58/114 35/65/115
f 35/65/115 28/58/114 36/66/116
s 29
f 28/58/117 29/59/118 36/66/119
f 36/66/119 29/59/118 37/67/120
s 30
f 29/59/121 30/60/122 37/67/123
f 37/67/123 30/60/122 38/68/124
s 31
f 30/60/125 31/61/126 38/68/127
f 38/68/127 31/61/126 39/69/128
s 32
f 31/61/129 32/62/130 39/69/131
f 39/69/131 32/62/130 40/70/132
s 33
f 32/62/133 25/55/134 40/70/135
f 40/70/135 25/55/134 33/63/136
s 34
f 33/63/137 34/64/138 41/71/139
f 41/71/139 34/64/138 42/72/140
s 35
f 34/64/141 35/65/142 42/72/143
f 42/72/143 35/65/142 43/73/144
s 36
f 35/65/145 36/66/146 43/73/147
f 43/73/147 36/66/146 44/74/148
s 37
f 36/66/149 37/67/150 44/74/151
f 44/74/151 37/67/150 45/75/152
s 38
f 37/67/153 38/68/154 45/75/155
f 45/75/155 38/68/154 46/76/156
s 39
f 38/68/157 39/69/158 46/76/159
f 46/76/159 39/69/158 47/77/160
s 40
f 39/69/161 40/70/162 47/77/163
f 47/77/163 40/70/162 48/78/164
s 41
f 40/70/165 33/63/166 48/78/167
f 48/78/167 33/63/166 41/71/168
s 42
f 42/72/169 50/80/170 41/71/171
f 41/71/171 50/80/170 49/79/172
s off
f 42/72/173 43/73/174 50/80/175
s 43
f 43/73/176 44/74/177 50/80/178
f 50/80/178 44/74/177 51/81/179
s off
f 44/74/180 45/75/181 51/81/182
s 44
f 45/75/183 46/76/184 51/81/185
f 51/81/185 46/76/184 52/82/186
s off
f 46/76/187 47/77/188 52/82/189
s 45
f 47/77/190 48/78/191 52/82/192
f 52/82/192 48/78/191 49/79/193
s off
f 48/78/194 41/71/195 49/79/196
s 46
f 15/41/197 13/18/198 53/83/199
f 53/83/199 13/18/198 54/84/200
s 47
f 2/17/201 4/20/202 55/85/203
f 55/85/203 4/20/202 56/86/204
s 48
f 21/52/205 23/27/206 58/87/207
f 58/87/207 23/27/206 59/88/208
s 49
f 8/30/209 6/26/210 60/89/211
f 60/89/211 6/26/210 57/90/212
s 50
f 19/47/213 17/23/214 61/91/215
f 61/91/215 17/23/214 62/92/216
s 51
f 3/24/217 7/25/218 63/93/219
f 63/93/219 7/25/218 64/94/220
s 52
f 9/34/221 11/11/222 65/95/223
f 65/95/223 11/11/222 66/96/224
s 53
f 5/12/225 1/13/226 67/97/227
f 67/97/227 1/13/226 68/98/228
s 54
f 1/16/229 2/17/230 68/99/231
f 68/99/231 2/17/230 55/85/232
s 55
f 13/18/233 9/19/234 54/84/235
f 54/84/235 9/19/234 65/100/236
s 56
f 4/20/237 3/21/238 56/86/239
f 56/86/239 3/21/238 63/101/240
s 57
f 17/22/241 15/41/242 62/102/243
f 62/102/243 15/41/242 53/83/244
s 58
f 11/14/245 21/52/246 66/103/247
f 66/103/247 21/52/246 58/87/248
s 59
f 6/26/249 5/15/250 57/90/251
f 57/90/251 5/15/250 67/104/252
s 60
f 23/27/253 19/28/254 59/88/255
f 59/88/255 19/28/254 61/105/256
s 61
f 7/29/257 8/30/258 64/106/259
f 64/106/259 8/30/258 60/89/260
s 62
f 53/83/261 54/84/262 69/107/263
f 69/107/263 54/84/262 70/108/264
s 63
f 55/85/265 56/86/266 71/109/267
f 71/109/267 56/86/266 72/110/268
s 64
f 58/87/269 59/88/270 74/111/271
f 74/111/271 59/88/270 75/112/272
s 65
f 60/89/273 57/90/274 76/113/275
f 76/113/275 57/90/274 73/114/276
s 66
f 61/91/277 62/92/278 77/115/279
f 77/115/279 62/92/278 78/116/280
s 67
f 63/93/281 64/94/282 79/117/283
f 79/117/283 64/94/282 80/118/284
s 68
f 65/95/285 66/96/286 81/119/287
f 81/119/287 66/96/286 82/120/288
s 69
f 67/97/289 68/98/290 83/121/291
f 83/121/291 68/98/290 84/122/292
s 70
f 68/99/293 55/85/294 84/123/295
f 84/123/295 55/85/294 71/109/296
s 71
f 54/84/297 65/100/298 70/108/299
f 70/108/299 65/100/298 81/124/300
s 72
f 56/86/301 63/101/302 72/110/303
f 72/110/303 63/101/302 79/125/304
s 73
f 62/102/305 53/83/306 78/126/307
f 78/126/307 53/83/306 69/107/308
s 74
f 66/103/309 58/87/310 82/127/311
f 82/127/311 58/87/310 74/111/312
s 75
f 57/90/313 67/104/314 73/114/315
f 73/114/315 67/104/314 83/128/316
s 76
f 59/88/317 61/105/318 75/112/319
f 75/112/319 61/105/318 77/129/320
s 77
f 64/106/321 60/89/322 80/130/323
f 80/130/323 60/89/322 76/113/324
s 78
f 49/79/325 50/80/326 52/82/327
f 52/82/327 50/80/326 51/81/328
