# This file uses centimeters as units for non-parametric coordinates.

g default
v 0.001596 -0.107206 0.060134
v 0.001596 -0.054492 0.112848
v 0.524087 -0.107206 0.060134
v 0.524087 -0.054492 0.112848
v 0.001596 0.103671 0.060134
v 0.001596 0.050957 0.112848
v 0.524087 0.103671 0.060134
v 0.524087 0.050957 0.112848
v 0.001596 0.050957 -0.112848
v 0.001596 0.103671 -0.060134
v 0.524087 0.050957 -0.112848
v 0.524087 0.103671 -0.060134
v 0.001596 -0.107206 -0.060134
v 0.001596 -0.054492 -0.112848
v 0.524087 -0.107206 -0.060134
v 0.524087 -0.054492 -0.112848
v 0.134543 -0.054492 0.112848
v 0.176389 -0.054492 0.112848
v 0.176389 0.050957 0.112848
v 0.134543 0.050957 0.112848
v 0.134543 0.103671 0.060134
v 0.176389 0.103671 0.060134
v 0.176389 0.103671 -0.060134
v 0.134543 0.103671 -0.060134
v 0.134543 0.050957 -0.112848
v 0.176389 0.050957 -0.112848
v 0.176389 -0.054492 -0.112848
v 0.134543 -0.054492 -0.112848
v 0.134543 -0.107206 -0.060134
v 0.176389 -0.107206 -0.060134
v 0.176389 -0.107206 0.060134
v 0.134543 -0.107206 0.060134
v 0.137617 -0.046745 0.096268
v 0.173314 -0.046745 0.096268
v 0.173314 0.043210 0.096268
v 0.137617 0.043210 0.096268
v 0.137617 0.088179 0.051299
v 0.173314 0.088179 0.051299
v 0.173314 0.088179 -0.051299
v 0.137617 0.088179 -0.051299
v 0.137617 0.043210 -0.096268
v 0.173314 0.043210 -0.096268
v 0.173314 -0.046745 -0.096268
v 0.137617 -0.046745 -0.096268
v 0.137617 -0.091714 -0.051299
v 0.173314 -0.091714 -0.051299
v 0.173314 -0.091714 0.051299
v 0.137617 -0.091714 0.051299
v 0.524087 -0.077925 0.043435
v 0.524087 -0.039850 0.081509
v 0.524087 -0.077925 -0.043435
v 0.524087 -0.039850 -0.081509
v 0.524087 0.036315 -0.081509
v 0.524087 0.074390 -0.043435
v 0.524087 0.074390 0.043435
v 0.524087 0.036315 0.081509
v 0.039589 -0.077925 0.043435
v 0.039589 -0.039850 0.081509
v 0.039589 -0.077925 -0.043435
v 0.039589 -0.039850 -0.081509
v 0.039589 0.036315 -0.081509
v 0.039589 0.074390 -0.043435
v 0.039589 0.074390 0.043435
v 0.039589 0.036315 0.081509
vt 0.682921 0.198556
vt 0.696374 0.184158
vt 0.727067 0.184158
vt 0.727067 0.241756
vt 0.696374 0.241756
vt 0.682921 0.227358
vt 0.690597 0.173313
vt 0.732740 0.173313
vt 0.751212 0.193082
vt 0.751212 0.232630
vt 0.732740 0.252400
vt 0.690597 0.252400
vt 0.634344 0.149637
vt 0.672125 0.232630
vt 0.634344 0.028431
vt 0.980028 0.028431
vt 0.980028 0.109240
vt 0.634344 0.028431
vt 0.980028 0.028431
vt 0.980028 0.109240
vt 0.634344 0.109240
vt 0.634344 0.028431
vt 0.980028 0.028431
vt 0.980028 0.109240
vt 0.634344 0.028431
vt 0.980028 0.028431
vt 0.672125 0.193083
vt 0.634344 0.149637
vt 0.634344 0.109240
vt 0.980028 0.149637
vt 0.634344 0.149637
vt 0.634344 0.109240
vt 0.980028 0.149637
vt 0.634344 0.149637
vt 0.634344 0.109240
vt 0.980028 0.149637
vt 0.753578 0.028431
vt 0.753578 0.109240
vt 0.713236 0.109240
vt 0.713236 0.149637
vt 0.753578 0.028431
vt 0.753578 0.109240
vt 0.713236 0.109240
vt 0.713236 0.028431
vt 0.753578 0.028431
vt 0.753578 0.109240
vt 0.713236 0.109240
vt 0.713236 0.028431
vt 0.753578 0.028431
vt 0.753578 0.109240
vt 0.713236 0.109240
vt 0.713236 0.028431
vt 0.713236 0.028431
vt 0.753578 0.149637
vt 0.713236 0.149637
vt 0.753578 0.149637
vt 0.713236 0.149637
vt 0.753578 0.149637
vt 0.713236 0.149637
vt 0.753578 0.149637
vt 0.741890 0.149637
vt 0.741890 0.109240
vt 0.726385 0.109240
vt 0.726385 0.149637
vt 0.741890 0.028431
vt 0.741890 0.109240
vt 0.726385 0.109240
vt 0.726385 0.028431
vt 0.741890 0.028431
vt 0.741890 0.109240
vt 0.726385 0.109240
vt 0.726385 0.028431
vt 0.741890 0.028431
vt 0.741890 0.109240
vt 0.726385 0.109240
vt 0.726385 0.028431
vt 0.741890 0.028431
vt 0.726385 0.028431
vt 0.726385 0.149637
vt 0.741890 0.149637
vt 0.726385 0.149637
vt 0.741890 0.149637
vt 0.726385 0.149637
vt 0.741890 0.149637
vt 0.680263 0.197152
vt 0.694933 0.181450
vt 0.728404 0.181450
vt 0.743074 0.197152
vt 0.743074 0.228561
vt 0.728404 0.244262
vt 0.694933 0.244262
vt 0.680263 0.228561
vt 0.672125 0.193083
vt 0.690597 0.173313
vt 0.732740 0.173313
vt 0.751212 0.193082
vt 0.751212 0.232630
vt 0.732740 0.252400
vt 0.690597 0.252400
vt 0.672125 0.232630
vt 0.980028 0.149637
vt 0.980028 0.109240
vt 0.740519 0.198556
vt 0.740519 0.227358
vt 0.980344 0.235781
vt 0.980344 0.165760
vt 0.761917 0.165760
vt 0.761917 0.235781
vt 0.980344 0.235781
vt 0.761917 0.235781
vt 0.980344 0.165760
vt 0.980344 0.235781
vt 0.980344 0.266472
vt 0.761917 0.266472
vt 0.980344 0.235781
vt 0.761917 0.235781
vt 0.980344 0.266472
vt 0.761917 0.266472
vt 0.761917 0.235781
vt 0.761917 0.165760
vt 0.980344 0.235781
vt 0.761917 0.235781
vt 0.761917 0.165760
vt 0.980344 0.235781
vt 0.761917 0.235781
vt 0.980344 0.165760
vt 0.980344 0.165760
vt 0.980344 0.235781
vt 0.761917 0.266472
vt 0.761917 0.165760
vt 0.761917 0.235781
vt 0.980344 0.266472
vt 0.761917 0.266472
vt 0.980344 0.235781
vt 0.761917 0.235781
vt 0.980344 0.266472
vn 0.000000 0.000000 1.000000
vn 0.000000 0.000000 1.000000
vn 0.000000 0.000000 1.000000
vn 0.000000 0.000000 1.000000
vn 0.000000 1.000000 0.000000
vn 0.000000 1.000000 0.000000
vn 0.000000 1.000000 0.000000
vn 0.000000 1.000000 0.000000
vn 0.000000 0.000000 -1.000000
vn 0.000000 0.000000 -1.000000
vn 0.000000 0.000000 -1.000000
vn 0.000000 0.000000 -1.000000
vn 0.000000 -1.000000 0.000000
vn 0.000000 -1.000000 0.000000
vn 0.000000 -1.000000 0.000000
vn 0.000000 -1.000000 0.000000
vn 1.000000 0.000000 0.000000
vn 1.000000 -0.000000 0.000000
vn 1.000000 0.000000 0.000000
vn 1.000000 0.000000 0.000000
vn 1.000000 0.000000 0.000000
vn 1.000000 0.000000 0.000000
vn 1.000000 0.000000 0.000000
vn 1.000000 0.000000 0.000000
vn -1.000000 0.000000 0.000000
vn -1.000000 -0.000000 0.000000
vn -1.000000 0.000000 0.000000
vn -1.000000 0.000000 0.000000
vn -1.000000 0.000000 0.000000
vn -1.000000 0.000000 0.000000
vn -1.000000 0.000000 0.000000
vn -1.000000 0.000000 0.000000
vn 0.000000 -0.707107 0.707107
vn 0.000000 -0.707107 0.707106
vn 0.000000 -0.707107 0.707106
vn 0.000000 -0.707107 0.707106
vn 0.000000 0.707106 0.707107
vn 0.000000 0.707107 0.707107
vn 0.000000 0.707107 0.707107
vn 0.000000 0.707107 0.707107
vn 0.000000 0.707107 -0.707107
vn 0.000000 0.707107 -0.707107
vn 0.000000 0.707107 -0.707107
vn 0.000000 0.707107 -0.707107
vn 0.000000 -0.707107 -0.707107
vn 0.000000 -0.707107 -0.707106
vn 0.000000 -0.707107 -0.707106
vn 0.000000 -0.707107 -0.707106
vn -0.000000 0.000000 1.000000
vn 0.000000 0.000000 1.000000
vn 0.000000 0.000000 1.000000
vn 0.000000 0.000000 1.000000
vn 0.000000 0.000000 1.000000
vn -0.000000 0.000000 1.000000
vn -0.000000 0.000000 1.000000
vn -0.000000 0.000000 1.000000
vn 0.000000 1.000000 0.000000
vn 0.000000 1.000000 0.000000
vn 0.000000 1.000000 0.000000
vn 0.000000 1.000000 0.000000
vn 0.000000 1.000000 0.000000
vn 0.000000 1.000000 0.000000
vn 0.000000 1.000000 0.000000
vn 0.000000 1.000000 0.000000
vn -0.000000 0.000000 -1.000000
vn 0.000000 0.000000 -1.000000
vn 0.000000 0.000000 -1.000000
vn 0.000000 0.000000 -1.000000
vn 0.000000 0.000000 -1.000000
vn -0.000000 0.000000 -1.000000
vn -0.000000 0.000000 -1.000000
vn -0.000000 0.000000 -1.000000
vn -0.000000 -1.000000 0.000000
vn -0.000000 -1.000000 0.000000
vn -0.000000 -1.000000 0.000000
vn -0.000000 -1.000000 0.000000
vn 0.000000 -1.000000 0.000000
vn 0.000000 -1.000000 0.000000
vn 0.000000 -1.000000 0.000000
vn 0.000000 -1.000000 0.000000
vn -0.000000 -0.707107 0.707107
vn -0.000000 -0.707107 0.707107
vn -0.000000 -0.707107 0.707107
vn 0.000000 -0.707107 0.707106
vn -0.000000 -0.707107 0.707107
vn 0.000000 -0.707107 0.707107
vn 0.000000 -0.707107 0.707107
vn 0.000000 -0.707107 0.707106
vn 0.000000 0.707107 0.707107
vn -0.000000 0.707107 0.707107
vn -0.000000 0.707107 0.707107
vn -0.000000 0.707107 0.707107
vn 0.000000 0.707107 0.707107
vn 0.000000 0.707107 0.707107
vn 0.000000 0.707107 0.707107
vn 0.000000 0.707107 0.707107
vn -0.000000 0.707107 -0.707107
vn -0.000000 0.707107 -0.707107
vn -0.000000 0.707107 -0.707107
vn 0.000000 0.707107 -0.707107
vn 0.000000 0.707107 -0.707107
vn 0.000000 0.707107 -0.707107
vn 0.000000 0.707107 -0.707107
vn 0.000000 0.707107 -0.707107
vn 0.000000 -0.707107 -0.707107
vn -0.000000 -0.707107 -0.707107
vn -0.000000 -0.707107 -0.707107
vn -0.000000 -0.707107 -0.707106
vn 0.000000 -0.707107 -0.707107
vn 0.000000 -0.707107 -0.707107
vn 0.000000 -0.707107 -0.707107
vn -0.000000 -0.707107 -0.707106
vn -0.983242 0.000000 0.182304
vn -0.983242 0.000000 0.182304
vn -0.983242 0.000000 0.182304
vn -0.983242 0.000000 0.182305
vn 0.983243 0.000000 0.182299
vn 0.983243 0.000000 0.182299
vn 0.983243 0.000000 0.182299
vn 0.983243 0.000000 0.182299
vn -0.980874 0.194645 0.000000
vn -0.980873 0.194646 0.000000
vn -0.980873 0.194646 0.000000
vn -0.980873 0.194648 0.000000
vn 0.980875 0.194641 0.000000
vn 0.980875 0.194640 0.000000
vn 0.980875 0.194640 0.000000
vn 0.980875 0.194638 0.000000
vn -0.983242 0.000000 -0.182304
vn -0.983242 0.000000 -0.182304
vn -0.983242 0.000000 -0.182304
vn -0.983242 0.000000 -0.182304
vn 0.983243 0.000000 -0.182299
vn 0.983243 0.000000 -0.182299
vn 0.983243 0.000000 -0.182299
vn 0.983243 0.000000 -0.182299
vn -0.980874 -0.194645 0.000000
vn -0.980873 -0.194646 0.000000
vn -0.980873 -0.194646 0.000000
vn -0.980873 -0.194648 0.000000
vn 0.980875 -0.194641 0.000000
vn 0.980875 -0.194640 0.000000
vn 0.980875 -0.194640 0.000000
vn 0.980875 -0.194638 0.000000
vn 0.984404 -0.124395 0.124395
vn 0.984404 -0.124394 0.124395
vn 0.984404 -0.124394 0.124395
vn 0.984405 -0.124393 0.124395
vn -0.984403 -0.124398 0.124398
vn -0.984403 -0.124399 0.124398
vn -0.984403 -0.124399 0.124398
vn -0.984403 -0.124401 0.124398
vn 0.984404 0.124395 0.124395
vn 0.984404 0.124394 0.124395
vn 0.984404 0.124394 0.124395
vn 0.984404 0.124393 0.124395
vn -0.984404 0.124397 0.124399
vn -0.984403 0.124399 0.124399
vn -0.984403 0.124399 0.124399
vn -0.984403 0.124402 0.124399
vn 0.984404 0.124395 -0.124395
vn 0.984404 0.124394 -0.124395
vn 0.984404 0.124394 -0.124395
vn 0.984405 0.124393 -0.124395
vn -0.984403 0.124398 -0.124399
vn -0.984403 0.124399 -0.124399
vn -0.984403 0.124399 -0.124399
vn -0.984403 0.124401 -0.124399
vn 0.984404 -0.124395 -0.124395
vn 0.984404 -0.124394 -0.124395
vn 0.984404 -0.124394 -0.124395
vn 0.984404 -0.124393 -0.124395
vn -0.984404 -0.124397 -0.124398
vn -0.984403 -0.124399 -0.124398
vn -0.984403 -0.124399 -0.124398
vn -0.984403 -0.124402 -0.124398
vn 1.000000 0.000000 0.000000
vn 1.000000 0.000000 0.000000
vn 1.000000 0.000000 0.000000
vn 1.000000 0.000000 0.000000
vn 1.000000 0.000003 0.000000
vn 1.000000 -0.000000 0.000000
vn 1.000000 -0.000000 0.000000
vn 1.000000 -0.000003 0.000000
vn 1.000000 -0.000002 0.000000
vn 1.000000 -0.000001 0.000000
vn 1.000000 -0.000001 0.000000
vn 1.000000 0.000000 0.000000
vn 1.000000 0.000000 0.000000
vn 1.000000 0.000000 0.000000
vn 1.000000 0.000000 0.000000
vn 1.000000 0.000000 0.000000
vn 1.000000 0.000000 0.000000
vn 1.000000 0.000000 0.000000
vn 1.000000 0.000000 0.000000
vn 1.000000 0.000000 0.000000
vn 1.000000 -0.000003 0.000000
vn 1.000000 0.000000 0.000000
vn 1.000000 0.000000 0.000000
vn 1.000000 0.000003 0.000000
vn 1.000000 0.000002 0.000000
vn 1.000000 0.000001 0.000000
vn 1.000000 0.000001 0.000000
vn 1.000000 0.000000 0.000000
vn 1.000000 0.000000 0.000000
vn 1.000000 0.000000 0.000000
vn 1.000000 0.000000 0.000000
vn 1.000000 0.000000 0.000000
vn 0.000000 0.707107 -0.707107
vn 0.000000 0.707107 -0.707107
vn 0.000000 0.707107 -0.707107
vn 0.000000 0.707107 -0.707107
vn 0.000000 1.000000 0.000000
vn 0.000000 1.000000 0.000000
vn 0.000000 1.000000 0.000000
vn 0.000000 1.000000 0.000000
vn 0.000000 0.707107 0.707107
vn 0.000000 0.707107 0.707107
vn 0.000000 0.707107 0.707107
vn 0.000000 0.707107 0.707107
vn 0.000000 0.000000 1.000000
vn 0.000000 0.000000 1.000000
vn 0.000000 0.000000 1.000000
vn 0.000000 0.000000 1.000000
vn 0.000000 -0.707107 0.707107
vn 0.000000 -0.707107 0.707107
vn 0.000000 -0.707107 0.707107
vn 0.000000 -0.707107 0.707107
vn 0.000000 -1.000000 0.000000
vn 0.000000 -1.000000 0.000000
vn 0.000000 -1.000000 0.000000
vn 0.000000 -1.000000 0.000000
vn 0.000000 -0.707107 -0.707107
vn 0.000000 -0.707107 -0.707107
vn 0.000000 -0.707107 -0.707107
vn 0.000000 -0.707107 -0.707107
vn 0.000000 0.000000 -1.000000
vn 0.000000 0.000000 -1.000000
vn 0.000000 0.000000 -1.000000
vn 0.000000 0.000000 -1.000000
s 1
g pCube3
f 33/78/1 34/77/2 36/63/3
f 36/63/3 34/77/2 35/62/4
s 2
f 37/68/5 38/65/6 40/67/7
f 40/67/7 38/65/6 39/66/8
s 3
f 41/72/9 42/69/10 44/71/11
f 44/71/11 42/69/10 43/70/12
s 4
f 45/76/13 46/73/14 48/75/15
f 48/75/15 46/73/14 47/74/16
s 5
f 58/93/17 57/94/18 64/100/19
f 57/94/18 59/95/20 64/100/19
f 64/100/19 59/95/20 63/99/21
f 63/99/21 59/95/20 62/98/22
f 59/95/20 60/96/23 62/98/22
f 60/96/23 61/97/24 62/98/22
s 6
f 14/1/25 13/2/26 9/6/27
f 13/2/26 1/3/28 9/6/27
f 9/6/27 1/3/28 10/5/29
f 10/5/29 1/3/28 5/4/30
f 1/3/28 2/103/31 5/4/30
f 2/103/31 6/104/32 5/4/30
s 7
f 33/64/33 48/75/34 34/61/35
f 34/61/35 48/75/34 47/74/36
s 8
f 37/79/37 36/63/38 38/80/39
f 38/80/39 36/63/38 35/62/40
s 9
f 41/81/41 40/67/42 42/82/43
f 42/82/43 40/67/42 39/66/44
s 10
f 45/83/45 44/71/46 46/84/47
f 46/84/47 44/71/46 43/70/48
s 11
f 4/26/49 8/102/50 18/37/51
f 18/37/51 8/102/50 19/38/52
s 12
f 6/29/53 2/25/54 20/39/55
f 20/39/55 2/25/54 17/53/56
s 13
f 7/16/57 12/17/58 22/41/59
f 22/41/59 12/17/58 23/42/60
s 14
f 10/32/61 5/15/62 24/43/63
f 24/43/63 5/15/62 21/44/64
s 15
f 11/23/65 16/24/66 26/45/67
f 26/45/67 16/24/66 27/46/68
s 16
f 14/35/69 9/22/70 28/47/71
f 28/47/71 9/22/70 25/48/72
s 17
f 15/19/73 3/20/74 30/49/75
f 30/49/75 3/20/74 31/50/76
s 18
f 1/21/77 13/18/78 32/51/79
f 32/51/79 13/18/78 29/52/80
s 19
f 2/13/81 1/21/82 17/40/83
f 17/40/83 1/21/82 32/51/84
s 20
f 3/20/85 4/101/86 31/50/87
f 31/50/87 4/101/86 18/54/88
s 21
f 5/28/89 6/29/90 21/55/91
f 21/55/91 6/29/90 20/39/92
s 22
f 8/102/93 7/30/94 19/38/95
f 19/38/95 7/30/94 22/56/96
s 23
f 9/31/97 10/32/98 25/57/99
f 25/57/99 10/32/98 24/43/100
s 24
f 12/17/101 11/33/102 23/42/103
f 23/42/103 11/33/102 26/58/104
s 25
f 13/34/105 14/35/106 29/59/107
f 29/59/107 14/35/106 28/47/108
s 26
f 16/24/109 15/36/110 27/46/111
f 27/46/111 15/36/110 30/60/112
s 27
f 18/37/113 19/38/114 34/77/115
f 34/77/115 19/38/114 35/62/116
s 28
f 20/39/117 17/53/118 36/63/119
f 36/63/119 17/53/118 33/78/120
s 29
f 22/41/121 23/42/122 38/65/123
f 38/65/123 23/42/122 39/66/124
s 30
f 24/43/125 21/44/126 40/67/127
f 40/67/127 21/44/126 37/68/128
s 31
f 26/45/129 27/46/130 42/69/131
f 42/69/131 27/46/130 43/70/132
s 32
f 28/47/133 25/48/134 44/71/135
f 44/71/135 25/48/134 41/72/136
s 33
f 30/49/137 31/50/138 46/73/139
f 46/73/139 31/50/138 47/74/140
s 34
f 32/51/141 29/52/142 48/75/143
f 48/75/143 29/52/142 45/76/144
s 35
f 17/40/145 32/51/146 33/64/147
f 33/64/147 32/51/146 48/75/148
s 36
f 18/54/149 34/61/150 31/50/151
f 31/50/151 34/61/150 47/74/152
s 37
f 20/39/153 36/63/154 21/55/155
f 21/55/155 36/63/154 37/79/156
s 38
f 19/38/157 22/56/158 35/62/159
f 35/62/159 22/56/158 38/80/160
s 39
f 25/57/161 24/43/162 41/81/163
f 41/81/163 24/43/162 40/67/164
s 40
f 26/58/165 42/82/166 23/42/167
f 23/42/167 42/82/166 39/66/168
s 41
f 28/47/169 44/71/170 29/59/171
f 29/59/171 44/71/170 45/83/172
s 42
f 27/46/173 30/60/174 43/70/175
f 43/70/175 30/60/174 46/84/176
s 43
f 4/27/177 3/7/178 50/85/179
f 50/85/179 3/7/178 49/86/180
s 44
f 3/7/181 15/8/182 49/86/183
f 49/86/183 15/8/182 51/87/184
s 45
f 16/9/185 52/88/186 15/8/187
f 15/8/187 52/88/186 51/87/188
s 46
f 16/9/189 11/10/190 52/88/191
f 52/88/191 11/10/190 53/89/192
s 47
f 11/10/193 12/11/194 53/89/195
f 53/89/195 12/11/194 54/90/196
s 48
f 12/11/197 7/12/198 54/90/199
f 54/90/199 7/12/198 55/91/200
s 49
f 8/14/201 56/92/202 7/12/203
f 7/12/203 56/92/202 55/91/204
s 50
f 8/14/205 4/27/206 56/92/207
f 56/92/207 4/27/206 50/85/208
s 51
f 50/105/209 49/136/210 58/108/211
f 58/108/211 49/136/210 57/133/212
s 52
f 49/106/213 51/134/214 57/107/215
f 57/107/215 51/134/214 59/131/216
s 53
f 51/109/217 52/132/218 59/110/219
f 59/110/219 52/132/218 60/129/220
s 54
f 52/111/221 53/112/222 60/120/223
f 60/120/223 53/112/222 61/119/224
s 55
f 53/113/225 54/128/226 61/114/227
f 61/114/227 54/128/226 62/125/228
s 56
f 54/115/229 55/126/230 62/116/231
f 62/116/231 55/126/230 63/123/232
s 57
f 55/117/233 56/124/234 63/118/235
f 63/118/235 56/124/234 64/122/236
s 58
f 56/121/237 50/127/238 64/135/239
f 64/135/239 50/127/238 58/130/240
