# This file differs from cube.obj in that the texture does not
# repeat on each face; instead, the texture is scaled to fit.
# The texture is only valid on the faces parallel to the XY plane.
# The other sides aren't meant to be too visibile since the whole
# model should be scaled to basically be a flat plane.

# This file uses centimeters as units for non-parametric coordinates.

g default
v -0.500000 -0.500000 0.500000
v 0.500000 -0.500000 0.500000
v -0.500000 0.500000 0.500000
v 0.500000 0.500000 0.500000
v -0.500000 0.500000 -0.500000
v 0.500000 0.500000 -0.500000
v -0.500000 -0.500000 -0.500000
v 0.500000 -0.500000 -0.500000
vt 0.000000 1.000000
vt 1.000000 1.000000
vt 0.000000 0.000000
vt 1.000000 0.000000
vn 0.000000 0.000000 1.000000
vn 0.000000 0.000000 1.000000
vn 0.000000 0.000000 1.000000
vn 0.000000 0.000000 1.000000
vn 0.000000 1.000000 0.000000
vn 0.000000 1.000000 0.000000
vn 0.000000 1.000000 0.000000
vn 0.000000 1.000000 0.000000
vn 0.000000 0.000000 -1.000000
vn 0.000000 0.000000 -1.000000
vn 0.000000 0.000000 -1.000000
vn 0.000000 0.000000 -1.000000
vn 0.000000 -1.000000 0.000000
vn 0.000000 -1.000000 0.000000
vn 0.000000 -1.000000 0.000000
vn 0.000000 -1.000000 0.000000
vn 1.000000 0.000000 0.000000
vn 1.000000 0.000000 0.000000
vn 1.000000 0.000000 0.000000
vn 1.000000 0.000000 0.000000
vn -1.000000 0.000000 0.000000
vn -1.000000 0.000000 0.000000
vn -1.000000 0.000000 0.000000
vn -1.000000 0.000000 0.000000
s 1
g pCube1
#good
f 1/1/1 2/2/2 3/3/3
f 3/3/3 2/2/2 4/4/4
s 2
f 3/1/5 4/2/6 5/3/7
f 5/3/7 4/2/6 6/4/8
s 3
f 5/4/9 6/3/10 7/2/11
f 7/2/11 6/3/10 8/1/12
#bottom
s 4
f 7/1/13 8/2/14 1/3/15
f 1/3/15 8/2/14 2/4/16
#good
s 5
f 2/1/17 8/2/18 4/3/19
f 4/3/19 8/2/18 6/4/20
s 6
f 7/1/21 1/2/22 5/3/23
f 5/3/23 1/2/22 3/4/24
